<?xml version="1.0" standalone="no"?>
<!DOCTYPE svg PUBLIC "-//W3C//DTD SVG 20010904//EN"
 "http://www.w3.org/TR/2001/REC-SVG-20010904/DTD/svg10.dtd">
<svg version="1.0" xmlns="http://www.w3.org/2000/svg"
 width="689.000000pt" height="689.000000pt" viewBox="0 0 689.000000 689.000000"
 preserveAspectRatio="xMidYMid meet">
<metadata>
Created by potrace 1.11, written by Peter Selinger 2001-2013
</metadata>
<g transform="translate(0.000000,689.000000) scale(0.100000,-0.100000)"
fill="#000000" stroke="none">
<path d="M1484 6811 c-300 -84 -435 -436 -266 -696 76 -118 203 -196 341 -210
75 -8 93 -12 146 -30 145 -50 283 -143 436 -295 105 -105 230 -257 261 -320 7
-14 19 -36 28 -50 61 -95 111 -265 111 -375 1 -83 -7 -116 -45 -209 -72 -175
-119 -350 -142 -531 -3 -27 -8 -59 -10 -70 -22 -113 -21 -593 1 -715 2 -14 7
-47 10 -74 23 -203 91 -425 191 -626 56 -113 77 -192 76 -280 -3 -152 -42
-246 -152 -359 -116 -120 -226 -177 -364 -188 -129 -10 -242 -61 -323 -145
-51 -54 -101 -156 -115 -236 -55 -323 232 -600 553 -531 251 54 405 300 350
561 -18 84 -18 106 -4 178 31 151 143 302 268 364 104 51 256 61 380 25 39
-11 130 -35 203 -54 73 -19 153 -45 176 -59 134 -78 218 -270 219 -501 1 -176
-41 -302 -129 -385 -103 -97 -147 -147 -172 -195 -126 -240 -53 -524 173 -670
79 -51 174 -78 272 -77 374 3 612 389 448 727 -38 77 -84 133 -160 189 -68 52
-100 91 -136 164 -61 123 -73 328 -27 472 32 103 101 203 186 270 59 47 99 67
187 96 151 48 328 147 435 243 25 22 47 41 50 41 3 0 7 -14 8 -30 3 -41 30
-106 64 -157 29 -44 116 -123 134 -123 6 0 26 -8 45 -17 26 -14 58 -18 134
-18 90 1 106 4 160 30 136 65 218 195 217 343 -2 228 -185 397 -412 379 -38
-3 -70 -4 -70 -2 0 3 13 38 30 79 48 121 102 326 116 441 3 22 7 49 9 60 28
135 28 641 -1 855 -4 35 -39 217 -48 255 -55 227 -156 444 -277 600 -167 216
-200 398 -91 514 52 55 128 83 264 95 158 15 272 69 383 181 123 122 174 243
180 420 5 163 -62 323 -184 443 -318 310 -857 185 -1001 -233 -51 -149 -46
-265 21 -465 45 -136 54 -230 30 -302 -25 -75 -126 -137 -251 -154 -52 -7
-184 -7 -218 0 -94 20 -373 27 -509 13 -99 -10 -222 -34 -326 -63 -103 -30
-197 -32 -313 -8 -214 44 -465 196 -682 414 -152 152 -266 386 -286 586 -25
244 -204 419 -439 428 -55 2 -102 -2 -143 -13z m2521 -1826 c336 -36 564 -207
690 -517 23 -57 61 -181 71 -231 2 -12 8 -44 13 -72 34 -173 46 -501 29 -750
-43 -615 -304 -964 -769 -1028 -53 -8 -146 -12 -207 -11 -633 14 -914 418
-915 1309 0 548 114 920 345 1117 70 60 183 120 273 147 89 26 113 31 205 38
41 3 76 6 77 7 5 4 126 -2 188 -9z"/>
</g>
</svg>
